# AST/ASF file generated using VICON BodyLanguage
# -----------------------------------------------
:version 1.10
:name VICON
:units
  mass 1.0
  length 0.45
  angle deg
:documentation
   .ast/.asf automatically generated from VICON data using
   VICON BodyBuilder and BodyLanguage model FoxedUp or BRILLIANT.MOD
:root
   order TX TY TZ RX RY RZ
   axis XYZ
   position 0 0 0  
   orientation 0 0 0 
:bonedata
  begin
     id 1 
     name lhipjoint
     direction 0.558404 -0.748506 0.357664 
     length 2.4234 
     axis 0 0 0  XYZ
  end
  begin
     id 2 
     name lfemur
     direction 0.34202 -0.939693 0  
     length 7.14567  
     axis 0 0 20  XYZ
    dof rx ry rz
    limits (-160.0 20.0)
           (-70.0 70.0)
           (-60.0 70.0)
  end
  begin
     id 3 
     name ltibia
     direction 0.34202 -0.939693 0   
     length 8.13956   
     axis 0 0 20   XYZ
    dof rx
    limits (-10.0 170.0)
  end
  begin
     id 4 
     name lfoot
     direction 0.0791314 -0.217412 0.972867   
     length 2.00134   
     axis -90 7.62852e-016 20   XYZ
    dof rx rz
    limits (-45.0 90.0)
           (-70.0 20.0)
  end
  begin
     id 5 
     name ltoes
     direction 1.53547e-011 -4.21922e-011 1   
     length 1.00735   
     axis -90 7.62852e-016 20   XYZ
    dof rx
    limits (-90.0 20.0)
  end
  begin
     id 6 
     name rhipjoint
     direction -0.496392 -0.78327 0.374276   
     length 2.31584  
     axis 0 0 0  XYZ 
  end
  begin
     id 7 
     name rfemur
     direction -0.34202 -0.939693 0   
     length 7.47417   
     axis 0 0 -20   XYZ
    dof rx ry rz
    limits (-160.0 20.0)
           (-70.0 70.0)
           (-70.0 60.0)
  end
  begin
     id 8 
     name rtibia
     direction -0.34202 -0.939693 0   
     length 7.69071   
     axis 0 0 -20   XYZ
    dof rx
    limits (-10.0 170.0)
 end
 begin
     id 9 
     name rfoot
     direction -0.103069 -0.28318 0.953512   
     length 2.16135  
     axis -90 -7.62852e-016 -20   XYZ
    dof rx rz
    limits (-45.0 90.0)
           (-20.0 70.0)
  end
  begin
     id 10 
     name rtoes
     direction -1.53581e-011 -4.21904e-011 1   
     length 1.07867   
     axis -90 -7.62852e-016 -20   XYZ
    dof rx
    limits (-90.0 20.0)
  end
  begin
     id 11 
     name lowerback
     direction -0.0258961 0.994776 -0.0987407   
     length 2.19412   
     axis 0 0 0   XYZ
    dof rx ry rz
    limits (-20.0 45.0)
           (-30.0 30.0)
           (-30.0 30.0)
  end
  begin
     id 12 
     name upperback
     direction 0.0402454 0.999185 0.00320666   
     length 2.18445   
     axis 0 0 0   XYZ
    dof rx ry rz
    limits (-20.0 45.0)
           (-30.0 30.0)
           (-30.0 30.0)
  end
  begin
     id 13 
     name thorax
     direction 0.0519376 0.997415 0.0496558   
     length 2.21487   
     axis 0 0 0   XYZ
    dof rx ry rz
    limits (-20.0 45.0)
           (-30.0 30.0)
           (-30.0 30.0)
  end
  begin
     id 14 
     name lowerneck
     direction -0.0921276 0.983211 0.157506   
     length 1.61201   
     axis 0 0 0   XYZ
    dof rx ry rz
    limits (-20.0 45.0)
           (-30.0 30.0)
           (-30.0 30.0)
  end
  begin
     id 15 
     name upperneck
     direction 0.0820814 0.98162 -0.172292   
     length 1.65275   
     axis 0 0 0   XYZ
    dof rx ry rz
    limits (-20.0 45.0)
           (-30.0 30.0)
           (-30.0 30.0)
  end
  begin
     id 16
     name head
     direction 0.0336554 0.996413 -0.0776455  
     length 1.66415  
     axis 0 0 0   XYZ
    dof rx ry rz
    limits (-20.0 45.0)
           (-30.0 30.0)
           (-30.0 30.0)
  end
  begin
     id 17 
     name lclavicle
     direction 0.94696 0.284418 -0.149576  
     length 3.41447  
     axis 0 0 0   XYZ
    dof ry rz
    limits (-20.0 10.0)
           (0.0 20.0)
  end
  begin
     id 18 
     name lhumerus
     direction 1 -0.000130264 -9.81312e-005   
     length 5.19964   
     axis 180 -30 -90   XYZ
    dof rx ry rz
    limits (-60.0 90.0)
           (-90.0 90.0)
           (-90.0 90.0)
  end
  begin
     id 19
     name lradius
     direction 1 -4.48961e-011 1.43854e-026   
     length 3.32189   
     axis 180 -30 -90   XYZ
    dof rx
    limits (-10.0 170.0)
  end
  begin
     id 20
     name lwrist
     direction 1 -4.48958e-011 3.1502e-026   
     length 1.66095   
     axis -1.97692e-014 90 90   XYZ
    dof ry
    limits (-180.0 0.0)
 end
  begin
     id 21 
     name lhand
     direction 1 -4.48927e-011 6.3004e-026   
     length 0.645616   
     axis -4.02019e-014 90 90   XYZ
    dof rx rz
    limits (-90.0 90.0)
           (-45.0 45.0)
  end
  begin
     id 22 
     name lfingers
     direction 1 -4.4904e-011 1.26008e-025   
     length 0.520512   
     axis -8.04039e-014 90 90   XYZ
    dof rx
    limits (0.0 90.0)
  end
  begin
     id 23
     name lthumb
     direction 0.707107 -6.34947e-011 0.707107   
     length 0.747354   
     axis -90 45 2.85299e-015   XYZ
    dof rx rz
    limits (-45.0 45.0)
           (-45.0 45.0)
  end
  begin
     id 24 
     name rclavicle
     direction -0.909391 0.383475 -0.161107   
     length 3.25176  
     axis 0 0 0   XYZ 
    dof ry rz
    limits (-10.0 20.0)
           (-20.0 0.0)
  end
  begin
     id 25 
     name rhumerus
     direction -1 -4.48965e-011 -1.81384e-027  
     length 5.6595   
     axis 180 30 90   XYZ
    dof rx ry rz
    limits (-90.0 60.0)
           (-90.0 90.0)
           (-90.0 90.0)
  end
  begin
     id 26 
     name rradius
     direction -1 -4.48996e-011 -8.09397e-027   
     length 3.37604   
     axis 180 30 90   XYZ
    dof rx
    limits (-10.0 170.0)
  end
  begin
     id 27 
     name rwrist
     direction -1 -4.48927e-011 -1.56669e-026   
     length 1.68802   
     axis 1.21142e-014 -90 -90   XYZ
    dof ry
    limits (-180.0 0.0)
  end
  begin
     id 28
     name rhand
     direction -1 -4.48912e-011 -3.13339e-026   
     length 0.824702   
     axis 1.99937e-014 -90 -90   XYZ
    dof rx rz
    limits (-90.0 90.0)
           (-45.0 45.0)
  end
  begin
     id 29
     name rfingers
     direction -1 -4.49011e-011 -6.26677e-026   
     length 0.664896   
     axis 3.99874e-014 -90 -90   XYZ
    dof rx
    limits (0.0 90.0)
  end
  begin
     id 30
     name rthumb
     direction -0.707107 -6.34931e-011 0.707107   
     length 0.954662   
     axis -90 -45 -2.85299e-015   XYZ
    dof rx rz
    limits (-45.0 45.0)
           (-45.0 45.0)
  end
:hierarchy
  begin
    root lhipjoint rhipjoint lowerback
    lhipjoint lfemur
    lfemur ltibia
    ltibia lfoot
    lfoot ltoes
    rhipjoint rfemur
    rfemur rtibia
    rtibia rfoot
    rfoot rtoes
    lowerback upperback
    upperback thorax
    thorax lowerneck lclavicle rclavicle
    lowerneck upperneck
    upperneck head
    lclavicle lhumerus
    lhumerus lradius
    lradius lwrist
    lwrist lhand lthumb
    lhand lfingers
    rclavicle rhumerus
    rhumerus rradius
    rradius rwrist
    rwrist rhand rthumb
    rhand rfingers
  end

#!OML:ASF F:\VICON\USERDATA\INSTALL\rory3\rory3.ASF
:FULLY-SPECIFIED
:DEGREES
259
root 9.50813 17.3616 -15.9013 18.661 -52.6174 -9.45289
lowerback 7.99154 -1.48856 -6.14762
upperback 2.0036 -2.43466 2.72813
thorax -2.01694 -1.21558 6.54837
lowerneck -11.5286 1.71171 -9.26806
upperneck 26.3408 0.971233 11.7808
head 10.0769 0.716734 5.92207
rclavicle 3.77691e-014 -7.95139e-016
rhumerus -37.4052 -18.4334 -71.2486
rradius 40.1264
rwrist -16.663
rhand -13.1523 18.5179
rfingers 7.12502
rthumb 12.9464 -11.0605
lclavicle 3.77691e-014 -7.95139e-016
lhumerus -13.174 28.7081 75.6805
lradius 23.3948
lwrist -11.0366
lhand -3.7868 32.6881
lfingers 7.12502
lthumb 21.9587 61.4618
rfemur -42.9933 2.9678 19.0969
rtibia 58.4279
rfoot -18.8749 -0.746104
rtoes 4.37302
lfemur -11.362 4.20003 -24.1826
ltibia 33.9988
lfoot -33.5783 21.0018
ltoes 10.5057
260
root 9.45846 17.3476 -15.8677 19.2216 -51.6433 -9.31185
lowerback 7.97454 -1.85556 -6.25863
upperback 1.81112 -2.92684 2.90654
thorax -2.11485 -1.45102 6.847
lowerneck -11.4674 1.68858 -10.0772
upperneck 26.2298 0.942519 12.4774
head 10.0078 0.699775 6.31347
rclavicle 5.04913e-014 -1.59028e-014
rhumerus -37.1653 -18.5949 -71.2385
rradius 40.2346
rwrist -16.0749
rhand -12.8504 19.026
rfingers 7.12502
rthumb 13.2374 -10.5337
lclavicle 5.04913e-014 -1.59028e-014
lhumerus -12.9806 28.8402 75.434
lradius 23.375
lwrist -10.7019
lhand -3.65852 32.9773
lfingers 7.12502
lthumb 22.0818 61.7365
rfemur -43.8247 2.41678 19.366
rtibia 58.5481
rfoot -19.0468 -0.725792
rtoes 3.22588
lfemur -11.8899 4.4556 -23.8234
ltibia 33.9142
lfoot -33.205 20.112
ltoes 9.49255
261
root 9.39223 17.3218 -15.783 19.26 -51.6194 -9.33058
lowerback 8.04257 -1.8885 -6.16334
upperback 1.85502 -2.96756 2.86033
thorax -2.10789 -1.47336 6.74862
lowerneck -12.1755 1.79798 -8.85945
upperneck 26.7657 1.09886 11.4849
head 10.3533 0.791644 5.79565
rclavicle -1.26626e-013 3.18055e-015
rhumerus -37.1384 -18.3036 -71.3589
rradius 40.5429
rwrist -16.1223
rhand -12.696 19.8614
rfingers 7.12502
rthumb 13.3862 -9.6885
lclavicle -1.26626e-013 3.18055e-015
lhumerus -12.9086 28.9838 75.1721
lradius 23.3919
lwrist -10.5807
lhand -3.99218 33.198
lfingers 7.12502
lthumb 21.7615 61.9947
rfemur -43.8848 2.47233 19.365
rtibia 58.67
rfoot -18.994 -0.210538
rtoes 3.65171
lfemur -11.4677 4.24977 -23.9318
ltibia 33.8811
lfoot -33.5681 20.4187
ltoes 9.46791
262
root 9.32578 17.297 -15.7107 19.3277 -51.3935 -9.18029
lowerback 8.16199 -2.00918 -6.24792
upperback 1.74185 -3.1414 2.8779
thorax -2.25866 -1.5497 6.84039
lowerneck -12.2062 1.87727 -8.89109
upperneck 26.8821 1.15823 11.6692
head 10.3904 0.833689 5.88338
rclavicle 6.81831e-014 1.98785e-014
rhumerus -37.1069 -18.085 -71.3142
rradius 40.6754
rwrist -15.964
rhand -12.5104 20.2709
rfingers 7.12502
rthumb 13.5651 -9.2672
lclavicle 6.81831e-014 1.98785e-014
lhumerus -13.0883 29.5352 74.8101
lradius 23.4633
lwrist -11.1237
lhand -4.142 33.2198
lfingers 7.12502
lthumb 21.6176 62.0331
rfemur -44.1498 2.31881 19.404
rtibia 58.8136
rfoot -18.5935 0.593824
rtoes 4.61974
lfemur -11.2752 4.12951 -24.0108
ltibia 33.8551
lfoot -33.8576 20.4356
ltoes 8.19671
263
root 9.2617 17.274 -15.6569 19.6868 -50.8708 -9.14334
lowerback 8.36369 -2.15681 -6.46012
upperback 1.53087 -3.36407 3.04543
thorax -2.53193 -1.64112 7.17892
lowerneck -12.3182 1.89889 -8.53394
upperneck 27.0015 1.20163 11.3054
head 10.4622 0.849195 5.69928
rclavicle -1.88845e-014 3.18055e-015
rhumerus -37.0241 -18.4213 -71.059
rradius 40.6822
rwrist -15.3361
rhand -12.308 20.2367
rfingers 7.12502
rthumb 13.7602 -9.28827
lclavicle -1.88845e-014 3.18055e-015
lhumerus -13.2584 30.0479 74.5116
lradius 23.6167
lwrist -11.4937
lhand -4.7054 32.9888
lfingers 7.12502
lthumb 21.0764 61.8633
rfemur -44.6301 1.99541 19.6749
rtibia 58.9488
rfoot -18.0956 1.26697
rtoes 4.99642
lfemur -11.3345 4.29961 -23.7959
ltibia 33.7113
lfoot -33.8384 20.0681
ltoes 8.27878
264
root 9.18595 17.2439 -15.5671 19.8067 -50.956 -9.28129
lowerback 8.46306 -2.05264 -6.51047
upperback 1.59076 -3.23531 3.05719
thorax -2.5428 -1.57826 7.21312
lowerneck -12.7293 1.8023 -8.01572
upperneck 27.2762 1.05721 10.9075
head 10.6771 0.795417 5.47105
rclavicle 1.09332e-014 4.05521e-014
rhumerus -36.9716 -18.5548 -71.0078
rradius 41.0412
rwrist -15.442
rhand -12.6957 19.8289
rfingers 7.12502
rthumb 13.3865 -9.721
lclavicle 1.09332e-014 4.05521e-014
lhumerus -13.2 30.2054 74.2664
lradius 23.836
lwrist -11.5331
lhand -5.60163 32.9552
lfingers 7.12502
lthumb 20.2153 61.9233
rfemur -44.6161 2.07907 19.7446
rtibia 59.1017
rfoot -17.7421 1.94892
rtoes 5.06186
lfemur -10.8175 3.85509 -23.8928
ltibia 33.5761
lfoot -34.2402 20.6687
ltoes 7.03844
265
root 9.10427 17.2101 -15.459 19.6954 -51.1098 -9.35056
lowerback 8.45676 -1.97304 -6.33962
upperback 1.78191 -3.11632 2.94507
thorax -2.37568 -1.53361 6.97771
lowerneck -12.7916 1.73479 -7.95337
upperneck 27.1915 0.930638 11.0027
head 10.6727 0.757884 5.47878
rclavicle 2.38542e-014 1.35174e-014
rhumerus -36.8417 -18.6496 -71.0861
rradius 41.4043
rwrist -15.6754
rhand -13.3234 19.3508
rfingers 7.12502
rthumb 12.7815 -10.238
lclavicle 2.38542e-014 1.35174e-014
lhumerus -13.0475 30.451 73.8796
lradius 24.0096
lwrist -11.6463
lhand -5.45325 33.1053
lfingers 7.12502
lthumb 20.3579 62.0583
rfemur -44.3816 2.0501 19.832
rtibia 59.2816
rfoot -17.5334 1.81195
rtoes 1.73511
lfemur -10.0705 3.22058 -24.1266
ltibia 33.4845
lfoot -34.7978 21.3388
ltoes 12.8077
266
root 9.03329 17.1801 -15.3879 19.721 -50.7385 -9.24112
lowerback 8.68985 -2.0629 -6.36191
upperback 1.71985 -3.25054 2.96731
thorax -2.54523 -1.5911 7.04172
lowerneck -12.1779 1.77448 -8.21886
upperneck 26.6196 0.975635 11.2848
head 10.3264 0.778452 5.58671
rclavicle 2.28602e-014 -1.03368e-014
rhumerus -36.7805 -19.2 -70.9459
rradius 41.5181
rwrist -15.066
rhand -13.1377 19.339
rfingers 7.12502
rthumb 12.9604 -10.2384
lclavicle 2.28602e-014 -1.03368e-014
lhumerus -13.0076 30.7214 73.3753
lradius 23.9599
lwrist -11.7342
lhand -4.99498 33.1846
lfingers 7.12502
lthumb 20.7982 62.0899
rfemur -44.5031 1.72368 20.0945
rtibia 59.5401
rfoot -17.1671 1.23046
rtoes 0.210597
lfemur -9.78647 3.18224 -24.0669
ltibia 33.3969
lfoot -34.8726 21.3184
ltoes 8.15424
267
root 8.95892 17.1425 -15.3161 20.1307 -50.6413 -9.44798
lowerback 8.75719 -2.03779 -6.38523
upperback 1.58343 -3.22028 3.08912
thorax -2.72196 -1.56364 7.1917
lowerneck -11.7028 1.77362 -8.49221
upperneck 26.2484 0.971304 11.5119
head 10.0909 0.768676 5.68485
rclavicle -4.55217e-014 -1.43125e-014
rhumerus -36.7996 -19.4494 -70.7036
rradius 41.7005
rwrist -14.6956
rhand -12.8867 19.4725
rfingers 7.12502
rthumb 13.2024 -10.0894
lclavicle -4.55217e-014 -1.43125e-014
lhumerus -13.0864 30.5242 72.9995
lradius 23.8417
lwrist -11.8342
lhand -5.55788 33.3816
lfingers 7.12502
lthumb 20.2573 62.3452
rfemur -44.7391 1.82898 20.3843
rtibia 59.9258
rfoot -16.6693 0.872053
rtoes 7.94379
lfemur -9.65777 3.37783 -23.9268
ltibia 33.3961
lfoot -35.0678 21.3575
ltoes 6.14512
268
root 8.87612 17.097 -15.2158 20.378 -50.7034 -9.7775
lowerback 8.72556 -1.94881 -6.13856
upperback 1.64601 -3.07699 3.11644
thorax -2.67514 -1.49834 7.06201
lowerneck -11.8044 1.69733 -8.52128
upperneck 26.3054 0.848463 11.603
head 10.1452 0.720984 5.71702
rclavicle 7.27552e-014 -3.02153e-014
rhumerus -36.6936 -19.709 -70.4857
rradius 41.8953
rwrist -14.4498
rhand -13.083 19.5033
rfingers 7.12502
rthumb 13.0132 -10.0709
lclavicle 7.27552e-014 -3.02153e-014
lhumerus -13.1239 30.0071 72.7754
lradius 23.9116
lwrist -12.0112
lhand -6.6223 33.5417
lfingers 7.12502
lthumb 19.234 62.6106
rfemur -44.5743 1.90186 20.6677
rtibia 60.4351
rfoot -16.4765 0.181065
rtoes 8.49729
lfemur -9.20185 3.62733 -23.8416
ltibia 33.5276
lfoot -35.5128 21.3849
ltoes 5.7309
269
root 8.79552 17.0571 -15.1257 20.586 -50.3225 -9.95182
lowerback 8.78552 -2.01078 -5.85929
upperback 1.69183 -3.13729 3.10128
thorax -2.66705 -1.53227 6.89281
lowerneck -12.1822 1.65062 -8.26955
upperneck 26.5675 0.730339 11.5953
head 10.3332 0.695983 5.68214
rclavicle -1.03964e-013 1.74931e-014
rhumerus -36.5385 -20.2006 -70.4303
rradius 42.1279
rwrist -14.0293
rhand -12.978 19.535
rfingers 7.12502
rthumb 13.1144 -10.0326
lclavicle -1.03964e-013 1.74931e-014
lhumerus -12.9899 29.5271 72.3305
lradius 23.9653
lwrist -12.2294
lhand -7.33672 33.7067
lfingers 7.12502
lthumb 18.5469 62.8425
rfemur -44.4349 1.50101 21.022
rtibia 61.0467
rfoot -16.759 -0.629975
rtoes 7.57038
lfemur -8.92741 3.8546 -23.5933
ltibia 33.711
lfoot -35.7663 21.1136
ltoes 4.7884
